<svg width="152" height="42" viewBox="0 0 152 42" fill="none" xmlns="http://www.w3.org/2000/svg">
<path d="M15.849 11.465V15.677H10.773V30.5H5.481V15.677H0.459V11.465H15.849ZM23.0989 18.026C23.6929 17.162 24.4129 16.478 25.2589 15.974C26.1049 15.47 27.0139 15.218 27.9859 15.218V20.861H26.5009C25.3489 20.861 24.4939 21.086 23.9359 21.536C23.3779 21.986 23.0989 22.769 23.0989 23.885V30.5H17.8069V15.353H23.0989V18.026ZM29.0191 22.913C29.0191 21.347 29.2981 19.979 29.8561 18.809C30.4321 17.639 31.2061 16.739 32.1781 16.109C33.1681 15.479 34.2661 15.164 35.4721 15.164C36.5161 15.164 37.4161 15.371 38.1721 15.785C38.9281 16.199 39.5131 16.757 39.9271 17.459V15.353H45.2191V30.5H39.9271V28.394C39.5131 29.096 38.9191 29.654 38.1451 30.068C37.3891 30.482 36.4981 30.689 35.4721 30.689C34.2661 30.689 33.1681 30.374 32.1781 29.744C31.2061 29.114 30.4321 28.214 29.8561 27.044C29.2981 25.856 29.0191 24.479 29.0191 22.913ZM39.9271 22.913C39.9271 21.941 39.6571 21.176 39.1171 20.618C38.5951 20.06 37.9471 19.781 37.1731 19.781C36.3811 19.781 35.7241 20.06 35.2021 20.618C34.6801 21.158 34.4191 21.923 34.4191 22.913C34.4191 23.885 34.6801 24.659 35.2021 25.235C35.7241 25.793 36.3811 26.072 37.1731 26.072C37.9471 26.072 38.5951 25.793 39.1171 25.235C39.6571 24.677 39.9271 23.903 39.9271 22.913ZM55.4977 25.505L58.3327 15.353H63.9757L58.7647 30.5H52.1767L46.9657 15.353H52.6087L55.4977 25.505ZM72.8158 30.689C71.3038 30.689 69.9448 30.374 68.7388 29.744C67.5508 29.114 66.6148 28.214 65.9308 27.044C65.2468 25.874 64.9048 24.497 64.9048 22.913C64.9048 21.347 65.2468 19.979 65.9308 18.809C66.6328 17.639 67.5778 16.739 68.7658 16.109C69.9718 15.479 71.3308 15.164 72.8428 15.164C74.3548 15.164 75.7048 15.479 76.8928 16.109C78.0988 16.739 79.0438 17.639 79.7278 18.809C80.4298 19.979 80.7808 21.347 80.7808 22.913C80.7808 24.479 80.4298 25.856 79.7278 27.044C79.0438 28.214 78.0988 29.114 76.8928 29.744C75.6868 30.374 74.3278 30.689 72.8158 30.689ZM72.8158 26.099C73.5538 26.099 74.1658 25.829 74.6518 25.289C75.1558 24.731 75.4078 23.939 75.4078 22.913C75.4078 21.887 75.1558 21.104 74.6518 20.564C74.1658 20.024 73.5628 19.754 72.8428 19.754C72.1228 19.754 71.5198 20.024 71.0338 20.564C70.5478 21.104 70.3048 21.887 70.3048 22.913C70.3048 23.957 70.5388 24.749 71.0068 25.289C71.4748 25.829 72.0778 26.099 72.8158 26.099ZM89.9809 30.689C88.4689 30.689 87.1099 30.374 85.9039 29.744C84.7159 29.114 83.7799 28.214 83.0959 27.044C82.4119 25.874 82.0699 24.497 82.0699 22.913C82.0699 21.347 82.4119 19.979 83.0959 18.809C83.7979 17.639 84.7429 16.739 85.9309 16.109C87.1369 15.479 88.4959 15.164 90.0079 15.164C91.5199 15.164 92.8699 15.479 94.0579 16.109C95.2639 16.739 96.2089 17.639 96.8929 18.809C97.5949 19.979 97.9459 21.347 97.9459 22.913C97.9459 24.479 97.5949 25.856 96.8929 27.044C96.2089 28.214 95.2639 29.114 94.0579 29.744C92.8519 30.374 91.4929 30.689 89.9809 30.689ZM89.9809 26.099C90.7189 26.099 91.3309 25.829 91.8169 25.289C92.3209 24.731 92.5729 23.939 92.5729 22.913C92.5729 21.887 92.3209 21.104 91.8169 20.564C91.3309 20.024 90.7279 19.754 90.0079 19.754C89.2879 19.754 88.6849 20.024 88.1989 20.564C87.7129 21.104 87.4699 21.887 87.4699 22.913C87.4699 23.957 87.7039 24.749 88.1719 25.289C88.6399 25.829 89.2429 26.099 89.9809 26.099ZM105.391 10.52V30.5H100.099V10.52H105.391ZM111.078 13.949C110.142 13.949 109.386 13.697 108.81 13.193C108.252 12.671 107.973 12.023 107.973 11.249C107.973 10.457 108.252 9.8 108.81 9.278C109.386 8.756 110.142 8.495 111.078 8.495C111.996 8.495 112.734 8.756 113.292 9.278C113.868 9.8 114.156 10.457 114.156 11.249C114.156 12.023 113.868 12.671 113.292 13.193C112.734 13.697 111.996 13.949 111.078 13.949ZM113.697 15.353V30.5H108.405V15.353H113.697Z" fill="white"/>
<path d="M131.163 35H129.499C129.332 34.9999 129.168 34.958 129.021 34.8779C128.874 34.7979 128.75 34.6824 128.659 34.5418C128.569 34.4013 128.515 34.2404 128.502 34.0737C128.49 33.9069 128.52 33.7398 128.589 33.5875L132.617 24.6969L126.568 24.5625L124.362 27.2356C123.941 27.7644 123.606 28 122.749 28H121.629C121.452 28.0057 121.276 27.9686 121.116 27.8918C120.956 27.815 120.817 27.7007 120.711 27.5588C120.562 27.3581 120.416 27.0181 120.558 26.5331L121.797 22.0956C121.806 22.0625 121.817 22.0294 121.83 21.9969C121.831 21.9938 121.831 21.9906 121.83 21.9875C121.817 21.955 121.806 21.9218 121.797 21.8881L120.557 17.4225C120.422 16.9469 120.569 16.6144 120.717 16.4187C120.816 16.2873 120.944 16.181 121.092 16.1082C121.24 16.0355 121.402 15.9984 121.567 16H122.749C123.389 16 124.009 16.2869 124.374 16.75L126.535 19.3781L132.617 19.2881L128.59 10.4131C128.521 10.2609 128.491 10.0938 128.503 9.9271C128.516 9.7604 128.569 9.59941 128.66 9.45885C128.75 9.31829 128.874 9.20264 129.021 9.12249C129.168 9.04233 129.332 9.00022 129.499 9H131.181C131.416 9.00472 131.646 9.06223 131.856 9.16826C132.065 9.2743 132.248 9.42614 132.391 9.6125L140.206 19.1125L143.817 19.0175C144.081 19.0031 144.814 18.9981 144.983 18.9981C148.437 19 150.499 20.1213 150.499 22C150.499 22.5913 150.263 23.6875 148.682 24.385C147.749 24.7975 146.504 25.0063 144.982 25.0063C144.814 25.0063 144.084 25.0013 143.816 24.9869L140.206 24.8906L132.371 34.3906C132.228 34.5762 132.045 34.7273 131.836 34.8327C131.627 34.9382 131.397 34.9954 131.163 35Z" fill="white"/>
</svg>
