<svg width="36" height="42" viewBox="0 0 36 42" fill="none" xmlns="http://www.w3.org/2000/svg">
<path d="M6 1.55556C6 0.696446 7.17157 0 8 0C8.82843 0 10 0.696446 10 1.55556V4.66667H6V1.55556Z" fill="#6E7491"/>
<path d="M26 1.55556C26 0.696446 27.1716 0 28 0C28.8284 0 30 0.696446 30 1.55556V4.66667H26V1.55556Z" fill="#6E7491"/>
<path fill-rule="evenodd" clip-rule="evenodd" d="M6 4.66667H1.5C0.671573 4.66667 0 5.36311 0 6.22222V40.4444C0 41.3036 0.671574 42 1.5 42H34.5C35.3284 42 36 41.3036 36 40.4444V6.22222C36 5.36311 35.3284 4.66667 34.5 4.66667H30H26H10H6ZM33 14H3V38.8889H33V14Z" fill="#6E7491"/>
</svg>
