<svg width="31" height="32" viewBox="0 0 31 32" fill="none" xmlns="http://www.w3.org/2000/svg">
<path d="M27.0486 25.8347C14.095 31.9995 6.0559 26.8416 0.909808 23.7087C0.59137 23.5113 0.050136 23.7549 0.519731 24.2943C2.23415 26.3731 7.85267 31.3835 15.1865 31.3835C22.5253 31.3835 26.8913 27.3791 27.4374 26.6805C27.9799 25.9879 27.5967 25.6058 27.0484 25.8347H27.0486ZM30.6865 23.8256C30.3387 23.3726 28.5713 23.2881 27.4591 23.4248C26.3451 23.5575 24.673 24.2383 24.8184 24.6471C24.893 24.8002 25.0453 24.7315 25.8105 24.6627C26.5779 24.5861 28.7275 24.3149 29.1755 24.9004C29.6255 25.49 28.4898 28.2987 28.2824 28.7517C28.082 29.2047 28.359 29.3215 28.7354 29.0198C29.1067 28.7182 29.7787 27.9372 30.2298 26.8319C30.6777 25.7207 30.9508 24.1705 30.6864 23.8256H30.6865Z" fill="#FF9900"/>
<path fill-rule="evenodd" clip-rule="evenodd" d="M18.3386 13.256C18.3386 14.8735 18.3794 16.2225 17.5618 17.659C16.902 18.827 15.8567 19.5452 14.6888 19.5452C13.0945 19.5452 12.166 18.3306 12.166 16.5378C12.166 12.999 15.3368 12.3567 18.3386 12.3567V13.256ZM22.5255 23.3761C22.251 23.6213 21.8539 23.6389 21.5445 23.4753C20.1663 22.3308 19.921 21.7994 19.1619 20.7073C16.8845 23.0315 15.2727 23.7264 12.3179 23.7264C8.8258 23.7264 6.10449 21.5716 6.10449 17.2561C6.10449 13.8867 7.9324 11.5917 10.5309 10.4705C12.785 9.47768 15.9326 9.30252 18.3386 9.02815V8.49086C18.3386 7.50391 18.4144 6.33602 17.8363 5.48348C17.3282 4.71847 16.3589 4.40311 15.5062 4.40311C13.9238 4.40311 12.5105 5.21478 12.166 6.89658C12.0958 7.2704 11.8215 7.63833 11.4478 7.6558L7.41837 7.22375C7.07975 7.14768 6.70604 6.87331 6.79947 6.3535C7.72795 1.47168 12.1367 0 16.0843 0C18.1048 0 20.7443 0.537295 22.3385 2.06732C24.3591 3.95346 24.1663 6.47031 24.1663 9.2091V15.6794C24.1663 17.624 24.9722 18.4765 25.7313 19.5277C25.9999 19.9014 26.0584 20.3512 25.7196 20.6314C24.8729 21.3379 23.3662 22.6519 22.5371 23.3878L22.5254 23.3761" fill="black"/>
<path d="M27.0486 25.8347C14.095 31.9995 6.0559 26.8416 0.909808 23.7087C0.59137 23.5113 0.050136 23.7549 0.519731 24.2943C2.23415 26.3731 7.85267 31.3835 15.1865 31.3835C22.5253 31.3835 26.8913 27.3791 27.4374 26.6805C27.9799 25.9879 27.5967 25.6058 27.0484 25.8347H27.0486ZM30.6865 23.8256C30.3387 23.3726 28.5713 23.2881 27.4591 23.4248C26.3451 23.5575 24.673 24.2383 24.8184 24.6471C24.893 24.8002 25.0453 24.7315 25.8105 24.6627C26.5779 24.5861 28.7275 24.3149 29.1755 24.9004C29.6255 25.49 28.4898 28.2987 28.2824 28.7517C28.082 29.2047 28.359 29.3215 28.7354 29.0198C29.1067 28.7182 29.7787 27.9372 30.2298 26.8319C30.6777 25.7207 30.9508 24.1705 30.6864 23.8256H30.6865Z" fill="#FF9900"/>
<path fill-rule="evenodd" clip-rule="evenodd" d="M18.3386 13.256C18.3386 14.8735 18.3794 16.2225 17.5618 17.659C16.902 18.827 15.8567 19.5452 14.6888 19.5452C13.0945 19.5452 12.166 18.3306 12.166 16.5378C12.166 12.999 15.3368 12.3567 18.3386 12.3567V13.256ZM22.5255 23.3761C22.251 23.6213 21.8539 23.6389 21.5445 23.4753C20.1663 22.3308 19.921 21.7994 19.1619 20.7073C16.8845 23.0315 15.2727 23.7264 12.3179 23.7264C8.8258 23.7264 6.10449 21.5716 6.10449 17.2561C6.10449 13.8867 7.9324 11.5917 10.5309 10.4705C12.785 9.47768 15.9326 9.30252 18.3386 9.02815V8.49086C18.3386 7.50391 18.4144 6.33602 17.8363 5.48348C17.3282 4.71847 16.3589 4.40311 15.5062 4.40311C13.9238 4.40311 12.5105 5.21478 12.166 6.89658C12.0958 7.2704 11.8215 7.63833 11.4478 7.6558L7.41837 7.22375C7.07975 7.14768 6.70604 6.87331 6.79947 6.3535C7.72795 1.47168 12.1367 0 16.0843 0C18.1048 0 20.7443 0.537295 22.3385 2.06732C24.3591 3.95346 24.1663 6.47031 24.1663 9.2091V15.6794C24.1663 17.624 24.9722 18.4765 25.7313 19.5277C25.9999 19.9014 26.0584 20.3512 25.7196 20.6314C24.8729 21.3379 23.3662 22.6519 22.5371 23.3878L22.5254 23.3761" fill="black"/>
</svg>
