<svg width="60" height="60" viewBox="0 0 60 60" fill="none" xmlns="http://www.w3.org/2000/svg">
<path opacity="0.3" d="M37 0C49.7025 0 60 10.2975 60 23V37C60 49.7025 49.7025 60 37 60H23C10.2975 60 0 49.7025 0 37V23C0 10.2975 10.2975 0 23 0H37Z" fill="#FF9066"/>
<path opacity="0.78" fill-rule="evenodd" clip-rule="evenodd" d="M28.6312 23.8088C28.6512 23.5483 28.8684 23.3472 29.1297 23.3472H29.5475C29.8044 23.3472 30.0195 23.5418 30.045 23.7974L30.6667 30.0138L35.0814 32.5365C35.2372 32.6256 35.3333 32.7912 35.3333 32.9707V33.3592C35.3333 33.6889 35.0199 33.9283 34.7018 33.8416L28.3987 32.1226C28.1673 32.0595 28.0133 31.841 28.0317 31.6018L28.6312 23.8088Z" fill="#FF9066"/>
<path opacity="0.901274" d="M21.8525 15.1901C21.9479 14.7905 22.4575 14.6695 22.7217 14.984L24.5205 17.1285C26.2036 16.4119 28.0552 16.0133 30 16.0133L30.3613 16.0182C37.9262 16.2098 43.9998 22.4023 44 30.0133C44 37.7453 37.732 44.0133 30 44.0133C22.268 44.0133 16 37.7453 16 30.0133C16 28.7003 16.1805 27.4293 16.5186 26.2242L19.0859 26.9449C18.8086 27.9338 18.667 28.9628 18.667 30.0133C18.667 36.2725 23.7408 41.3473 30 41.3473C36.2592 41.3473 41.333 36.2725 41.333 30.0133C41.3328 23.9498 36.5712 18.9984 30.583 18.6949L30 18.6803C28.7318 18.6803 27.4968 18.8887 26.332 19.2867L28.1328 21.4332C28.3974 21.7485 28.1892 22.2302 27.7783 22.2535L20.7334 22.653C20.3992 22.6718 20.1411 22.3633 20.2188 22.0377L21.8525 15.1901Z" fill="#FF9066"/>
</svg>
