<svg width="42" height="39" viewBox="0 0 42 39" fill="none" xmlns="http://www.w3.org/2000/svg">
<path fill-rule="evenodd" clip-rule="evenodd" d="M3.4392 8.43855C2.89004 8.26011 2.31209 8.6175 2.22637 9.18852L1.19775 16.0404C1.0504 17.0219 1.63424 17.966 2.57815 18.2727L37.6197 29.6584C39.257 30.1904 41.0157 29.2943 41.5477 27.657C42.1007 25.9549 41.1104 24.1378 39.3803 23.68L28.5961 20.8267L25.8996 1.7963C25.7878 1.00671 25.2359 0.349801 24.4775 0.103367C23.2065 -0.309582 21.8802 0.56103 21.7535 1.89135L20.2103 18.1019L5.478 14.158L4.05006 9.07454C3.96557 8.77375 3.73634 8.53509 3.4392 8.43855ZM41.6821 35.7934H0V38.9997H41.6821V35.7934Z" fill="#6E7491"/>
</svg>
