<svg width="18" height="18" viewBox="0 0 18 18" fill="none" xmlns="http://www.w3.org/2000/svg">
<g clip-path="url(#clip0_11_4583)">
<path d="M16.1176 9.13689C16.1176 8.53945 16.0692 8.10348 15.9642 7.65137H9.14209V10.3479H13.1465C13.0658 11.018 12.6299 12.0272 11.661 12.7054L11.6474 12.7956L13.8045 14.4667L13.9539 14.4816C15.3264 13.214 16.1176 11.349 16.1176 9.13689Z" fill="#4285F4"/>
<path d="M9.14203 16.2412C11.1039 16.2412 12.7509 15.5953 13.9539 14.4812L11.661 12.705C11.0474 13.1329 10.2239 13.4316 9.14203 13.4316C7.22054 13.4316 5.58969 12.1641 5.00834 10.4121L4.92313 10.4193L2.68021 12.1552L2.65088 12.2367C3.84575 14.6103 6.30012 16.2412 9.14203 16.2412Z" fill="#34A853"/>
<path d="M5.00848 10.4119C4.85509 9.95981 4.76631 9.47536 4.76631 8.97482C4.76631 8.47423 4.85509 7.98984 5.00041 7.53772L4.99635 7.44144L2.72532 5.67773L2.65102 5.71308C2.15855 6.69806 1.87598 7.80416 1.87598 8.97482C1.87598 10.1455 2.15855 11.2515 2.65102 12.2365L5.00848 10.4119Z" fill="#FBBC05"/>
<path d="M9.14203 4.51856C10.5064 4.51856 11.4268 5.10793 11.9516 5.60045L14.0023 3.59819C12.7428 2.42753 11.1039 1.70898 9.14203 1.70898C6.30012 1.70898 3.84575 3.33983 2.65088 5.71343L5.00027 7.53808C5.58969 5.78612 7.22054 4.51856 9.14203 4.51856Z" fill="#EB4335"/>
</g>
<defs>
<clipPath id="clip0_11_4583">
<rect width="14.25" height="14.5825" fill="white" transform="translate(1.875 1.70898)"/>
</clipPath>
</defs>
</svg>
