<svg xmlns="http://www.w3.org/2000/svg" width="22" height="22" viewBox="0 0 22 22" fill="none">
  <path d="M6.95734 4.95915C6.24234 4.24415 6.24234 3.07999 6.95734 2.36499C7.67234 1.64999 8.8365 1.64999 9.5515 2.36499C10.2665 3.07999 10.2665 4.24415 9.5515 4.95915C8.82734 5.68332 7.67234 5.68332 6.95734 4.95915ZM5.49984 14.6667V7.33332C5.49984 6.82915 5.08734 6.41665 4.58317 6.41665C4.079 6.41665 3.6665 6.82915 3.6665 7.33332V14.6667C3.6665 17.1967 5.71984 19.25 8.24984 19.25H12.8332C13.3373 19.25 13.7498 18.8375 13.7498 18.3333C13.7498 17.8292 13.3373 17.4167 12.8332 17.4167H8.24984C6.72817 17.4167 5.49984 16.1883 5.49984 14.6667ZM17.6732 17.7375L14.2173 14.2817C13.8782 13.9425 13.4107 13.75 12.9248 13.75H10.5415V10.3767C11.5407 11.1925 12.9798 11.935 14.3915 12.2283C15.0057 12.3567 15.5832 11.8983 15.5832 11.275C15.5832 10.7892 15.2257 10.395 14.7398 10.3125C13.4382 10.0925 12.0998 9.38665 11.3023 8.50665L10.019 7.08582C9.84484 6.89332 9.62484 6.73749 9.3865 6.62749C9.12067 6.49915 8.81817 6.41665 8.5065 6.41665H8.479C7.34234 6.41665 6.4165 7.34249 6.4165 8.47915V13.75C6.4165 15.2717 7.64484 16.5 9.1665 16.5H13.814L16.3623 19.0483C16.7198 19.4058 17.3157 19.4058 17.6732 19.0483C18.0398 18.6908 18.0398 18.1042 17.6732 17.7375Z" fill="#605DEC"/>
</svg>
